<svg width="177" height="48" viewBox="0 0 177 48" fill="none" xmlns="http://www.w3.org/2000/svg">
<path d="M36.6168 40.8326L26.1333 46.8852C23.5586 48.3716 20.3864 48.3716 17.8118 46.885L14.4965 44.9708L0.0185547 36.6124L14.4965 28.2541L36.6168 40.8326Z" fill="#0C132C"/>
<path d="M43.8155 11.3273L29.2438 19.7399L14.4964 11.2256L7.39417 7.12569L14.4964 3.02443L17.8038 1.11447C20.3782 -0.371491 23.5509 -0.371491 26.1252 1.11447L43.8155 11.3273Z" fill="#28306E"/>
<path d="M14.4964 11.2258V28.2543L0.018504 36.6127L0 36.6021V16.1989C0 13.2256 1.58635 10.4782 4.16202 8.99093L7.39416 7.12589L14.4964 11.2258Z" fill="#1C2454"/>
<path d="M63.5345 13.0441H60.8968C60.7059 11.812 59.5258 10.8749 58.1896 10.8749C55.7428 10.8749 54.823 12.9574 54.823 15.1265C54.823 17.1916 55.7428 19.274 58.1896 19.274C59.8555 19.274 60.7926 18.1461 61.0009 16.4975H63.6386C63.361 19.6037 61.2438 21.5647 58.1896 21.5647C54.3718 21.5647 52.0985 18.7014 52.0985 15.1265C52.0985 11.4476 54.3718 8.58427 58.1896 8.58427C60.8968 8.58427 63.2048 10.1808 63.5345 13.0441ZM67.6856 15.1265C67.6856 17.1916 68.6054 19.274 71.0522 19.274C73.4991 19.274 74.4188 17.1916 74.4188 15.1265C74.4188 12.9574 73.4991 10.8749 71.0522 10.8749C68.6054 10.8749 67.6856 12.9574 67.6856 15.1265ZM64.9611 15.1265C64.9611 11.4476 67.2344 8.58427 71.0522 8.58427C74.87 8.58427 77.1433 11.4476 77.1433 15.1265C77.1433 18.7014 74.87 21.5647 71.0522 21.5647C67.2344 21.5647 64.9611 18.7014 64.9611 15.1265ZM81.7302 10.9964V14.4845H84.715C85.9471 14.4845 86.5892 13.9639 86.5892 12.7144C86.5892 11.517 85.9471 10.9964 84.715 10.9964H81.7302ZM79.0057 21.2697V8.87928H85.6868C87.908 8.87928 89.3137 10.4237 89.3137 12.2979C89.3137 13.7556 88.741 14.8489 87.3527 15.4042V15.4389C88.6889 15.8033 89.0707 17.0701 89.1575 18.3369C89.2095 19.1178 89.1748 20.5929 89.6781 21.2697H86.9536C86.6412 20.4888 86.6586 19.2914 86.5198 18.3022C86.3289 17.0007 85.8256 16.4281 84.4547 16.4281H81.7302V21.2697H79.0057ZM94.2712 21.2697V11.1699H90.5576V8.87928H100.709V11.1699H96.9957V21.2697H94.2712ZM102.138 21.2697V8.87928H111.405V11.1699H104.863V13.825H110.867V15.9422H104.863V18.979H111.544V21.2697H102.138ZM112.089 21.2697L116.428 14.7795L112.436 8.87928H115.595L118.024 12.8359L120.54 8.87928H123.525L119.551 14.7968L123.872 21.2697H120.627L117.92 16.9834L115.161 21.2697H112.089ZM132.52 11.1699V18.979H134.949C136.528 18.979 138.038 18.0072 138.038 15.2654C138.038 12.7665 137.153 11.1699 134.463 11.1699H132.52ZM129.795 21.2697V8.87928H135.14C138.35 8.87928 140.763 10.9096 140.763 15.0051C140.763 18.5972 138.923 21.2697 135.14 21.2697H129.795ZM147.395 11.9335L145.781 16.4801H148.992L147.43 11.9335H147.395ZM141.339 21.2697L146.042 8.87928H148.836L153.469 21.2697H150.64L149.703 18.5105H145.07L144.098 21.2697H141.339ZM157.279 21.2697V11.1699H153.566V8.87928H163.718V11.1699H160.004V21.2697H157.279ZM169.884 11.9335L168.27 16.4801H171.48L169.918 11.9335H169.884ZM163.827 21.2697L168.53 8.87928H171.324L175.957 21.2697H173.129L172.192 18.5105H167.558L166.587 21.2697H163.827ZM52.6365 38.2697V25.8793H55.361V38.2697H52.6365ZM57.7544 38.2697V25.8793H60.4616L65.6329 34.1916H65.6676V25.8793H68.2186V38.2697H65.4941L60.3401 29.9747H60.3054V38.2697H57.7544ZM73.3415 28.1699V35.979H75.771C77.3502 35.979 78.8599 35.0072 78.8599 32.2654C78.8599 29.7665 77.9749 28.1699 75.2851 28.1699H73.3415ZM70.617 38.2697V25.8793H75.9619C79.1723 25.8793 81.5844 27.9096 81.5844 32.0051C81.5844 35.5972 79.745 38.2697 75.9619 38.2697H70.617ZM85.6662 32.1265C85.6662 34.1916 86.5859 36.274 89.0328 36.274C91.4796 36.274 92.3993 34.1916 92.3993 32.1265C92.3993 29.9574 91.4796 27.8749 89.0328 27.8749C86.5859 27.8749 85.6662 29.9574 85.6662 32.1265ZM82.9417 32.1265C82.9417 28.4476 85.215 25.5843 89.0328 25.5843C92.8505 25.5843 95.1238 28.4476 95.1238 32.1265C95.1238 35.7014 92.8505 38.5647 89.0328 38.5647C85.215 38.5647 82.9417 35.7014 82.9417 32.1265ZM96.9862 38.2697V25.8793H99.6934L104.865 34.1916H104.899V25.8793H107.45V38.2697H104.726L99.5719 29.9747H99.5372V38.2697H96.9862ZM109.849 38.2697V25.8793H119.116V28.1699H112.573V30.825H118.578V32.9422H112.573V35.979H119.254V38.2697H109.849ZM120.321 34.1569H122.958C122.958 35.8055 124.242 36.4476 125.7 36.4476C126.655 36.4476 128.112 36.1699 128.112 34.9031C128.112 33.5495 126.238 33.3586 124.433 32.8554C122.594 32.4042 120.737 31.6233 120.737 29.3326C120.737 26.7817 123.132 25.5843 125.37 25.5843C127.956 25.5843 130.334 26.7122 130.334 29.5756H127.696C127.609 28.1005 126.568 27.7014 125.249 27.7014C124.381 27.7014 123.375 28.0658 123.375 29.107C123.375 30.0615 123.965 30.2003 127.071 30.9812C127.991 31.1895 130.75 31.7968 130.75 34.5907C130.75 36.864 128.98 38.5647 125.596 38.5647C122.854 38.5647 120.269 37.2111 120.321 34.1569ZM132.371 38.2697V25.8793H135.096V38.2697H132.371ZM142.227 28.9335L140.613 33.4801H143.823L142.261 28.9335H142.227ZM136.17 38.2697L140.873 25.8793H143.667L148.3 38.2697H145.472L144.535 35.5105H139.901L138.929 38.2697H136.17Z" fill="#0C132C"/>
</svg>
