<svg width="177" height="48" viewBox="0 0 177 48" fill="none" xmlns="http://www.w3.org/2000/svg">
<path d="M36.6168 40.8324L26.1333 46.885C23.5586 48.3715 20.3864 48.3714 17.8118 46.8849L14.4964 44.9706L0.0185547 36.6123L14.4964 28.2539L36.6168 40.8324Z" fill="white"/>
<path d="M43.8155 11.3273L29.2439 19.7398L14.4965 11.2256L7.39429 7.12568L14.4965 3.02443L17.8039 1.11447C20.3783 -0.37149 23.551 -0.37149 26.1253 1.11447L43.8155 11.3273Z" fill="white"/>
<path d="M14.4964 11.2259V28.2544L0.018504 36.6127L0 36.6022V16.1989C0 13.2257 1.58635 10.4783 4.16201 8.99102L7.39415 7.12598L14.4964 11.2259Z" fill="#D9D9D9"/>
<path d="M63.5343 13.044H60.8966C60.7057 11.8119 59.5257 10.8748 58.1895 10.8748C55.7426 10.8748 54.8229 12.9572 54.8229 15.1264C54.8229 17.1915 55.7426 19.2739 58.1895 19.2739C59.8554 19.2739 60.7925 18.1459 61.0007 16.4973H63.6385C63.3608 19.6036 61.2437 21.5645 58.1895 21.5645C54.3717 21.5645 52.0984 18.7012 52.0984 15.1264C52.0984 11.4475 54.3717 8.58413 58.1895 8.58413C60.8966 8.58413 63.2046 10.1807 63.5343 13.044ZM67.6855 15.1264C67.6855 17.1915 68.6052 19.2739 71.0521 19.2739C73.4989 19.2739 74.4186 17.1915 74.4186 15.1264C74.4186 12.9572 73.4989 10.8748 71.0521 10.8748C68.6052 10.8748 67.6855 12.9572 67.6855 15.1264ZM64.961 15.1264C64.961 11.4475 67.2343 8.58413 71.0521 8.58413C74.8698 8.58413 77.1431 11.4475 77.1431 15.1264C77.1431 18.7012 74.8698 21.5645 71.0521 21.5645C67.2343 21.5645 64.961 18.7012 64.961 15.1264ZM81.73 10.9963V14.4843H84.7148C85.9469 14.4843 86.589 13.9637 86.589 12.7143C86.589 11.5169 85.9469 10.9963 84.7148 10.9963H81.73ZM79.0055 21.2695V8.87914H85.6866C87.9079 8.87914 89.3135 10.4236 89.3135 12.2978C89.3135 13.7555 88.7408 14.8487 87.3525 15.4041V15.4388C88.6888 15.8032 89.0705 17.07 89.1573 18.3368C89.2094 19.1177 89.1747 20.5927 89.6779 21.2695H86.9534C86.641 20.4886 86.6584 19.2912 86.5196 18.3021C86.3287 17.0006 85.8254 16.4279 84.4545 16.4279H81.73V21.2695H79.0055ZM94.271 21.2695V11.1698H90.5574V8.87914H100.709V11.1698H96.9955V21.2695H94.271ZM102.138 21.2695V8.87914H111.405V11.1698H104.862V13.8249H110.867V15.942H104.862V18.9789H111.543V21.2695H102.138ZM112.089 21.2695L116.427 14.7793L112.436 8.87914H115.594L118.024 12.8357L120.54 8.87914H123.525L119.551 14.7967L123.872 21.2695H120.627L117.92 16.9832L115.161 21.2695H112.089ZM132.519 11.1698V18.9789H134.949C136.528 18.9789 138.038 18.0071 138.038 15.2652C138.038 12.7663 137.153 11.1698 134.463 11.1698H132.519ZM129.795 21.2695V8.87914H135.14C138.35 8.87914 140.762 10.9095 140.762 15.0049C140.762 18.5971 138.923 21.2695 135.14 21.2695H129.795ZM147.395 11.9334L145.781 16.48H148.992L147.43 11.9334H147.395ZM141.339 21.2695L146.041 8.87914H148.835L153.469 21.2695H150.64L149.703 18.5103H145.07L144.098 21.2695H141.339ZM157.279 21.2695V11.1698H153.565V8.87914H163.717V11.1698H160.004V21.2695H157.279ZM169.883 11.9334L168.27 16.48H171.48L169.918 11.9334H169.883ZM163.827 21.2695L168.53 8.87914H171.324L175.957 21.2695H173.129L172.191 18.5103H167.558L166.586 21.2695H163.827ZM52.6364 38.2695V25.8791H55.3609V38.2695H52.6364ZM57.7543 38.2695V25.8791H60.4614L65.6328 34.1915H65.6675V25.8791H68.2184V38.2695H65.4939L60.3399 29.9746H60.3052V38.2695H57.7543ZM73.3414 28.1698V35.9789H75.7709C77.35 35.9789 78.8598 35.0071 78.8598 32.2652C78.8598 29.7663 77.9747 28.1698 75.285 28.1698H73.3414ZM70.6169 38.2695V25.8791H75.9617C79.1721 25.8791 81.5843 27.9095 81.5843 32.0049C81.5843 35.5971 79.7448 38.2695 75.9617 38.2695H70.6169ZM85.666 32.1264C85.666 34.1915 86.5857 36.2739 89.0326 36.2739C91.4794 36.2739 92.3992 34.1915 92.3992 32.1264C92.3992 29.9572 91.4794 27.8748 89.0326 27.8748C86.5857 27.8748 85.666 29.9572 85.666 32.1264ZM82.9415 32.1264C82.9415 28.4475 85.2148 25.5841 89.0326 25.5841C92.8503 25.5841 95.1236 28.4475 95.1236 32.1264C95.1236 35.7012 92.8503 38.5645 89.0326 38.5645C85.2148 38.5645 82.9415 35.7012 82.9415 32.1264ZM96.986 38.2695V25.8791H99.6932L104.865 34.1915H104.899V25.8791H107.45V38.2695H104.726L99.5717 29.9746H99.537V38.2695H96.986ZM109.849 38.2695V25.8791H119.115V28.1698H112.573V30.8249H118.577V32.942H112.573V35.9789H119.254V38.2695H109.849ZM120.32 34.1568H122.958C122.958 35.8053 124.242 36.4474 125.7 36.4474C126.654 36.4474 128.112 36.1698 128.112 34.903C128.112 33.5494 126.238 33.3585 124.433 32.8552C122.594 32.4041 120.737 31.6231 120.737 29.3325C120.737 26.7815 123.132 25.5841 125.37 25.5841C127.956 25.5841 130.333 26.7121 130.333 29.5754H127.696C127.609 28.1004 126.568 27.7013 125.249 27.7013C124.381 27.7013 123.375 28.0657 123.375 29.1069C123.375 30.0613 123.965 30.2002 127.071 30.9811C127.991 31.1893 130.75 31.7967 130.75 34.5906C130.75 36.8639 128.98 38.5645 125.596 38.5645C122.854 38.5645 120.268 37.211 120.32 34.1568ZM132.371 38.2695V25.8791H135.095V38.2695H132.371ZM142.226 28.9334L140.612 33.48H143.823L142.261 28.9334H142.226ZM136.17 38.2695L140.873 25.8791H143.667L148.3 38.2695H145.471L144.534 35.5103H139.901L138.929 38.2695H136.17Z" fill="white"/>
</svg>
