<svg width="64" height="64" viewBox="0 0 64 64" fill="none" xmlns="http://www.w3.org/2000/svg">
<rect width="64" height="64" rx="32" fill="#DEE9FF"/>
<path d="M27.1994 37.2C29.1876 37.2 30.7994 35.5882 30.7994 33.6C30.7994 31.6118 29.1876 30 27.1994 30C25.2111 30 23.5994 31.6118 23.5994 33.6C23.5994 35.5882 25.2111 37.2 27.1994 37.2Z" stroke="#35468A" stroke-width="2.4" stroke-linecap="round" stroke-linejoin="round"/>
<path d="M36.7997 29.2C38.7879 29.2 40.3997 27.5882 40.3997 25.6C40.3997 23.6118 38.7879 22 36.7997 22C34.8115 22 33.1997 23.6118 33.1997 25.6C33.1997 27.5882 34.8115 29.2 36.7997 29.2Z" stroke="#35468A" stroke-width="2.4" stroke-linecap="round" stroke-linejoin="round"/>
<path d="M31.5998 34.0002C31.5998 32.4002 32.7998 29.2002 36.7998 29.2002C40.7998 29.2002 41.9998 32.4002 41.9998 34.0002M21.9998 42.0002C21.9998 40.4002 23.1998 37.2002 27.1998 37.2002C31.1998 37.2002 32.3998 40.4002 32.3998 42.0002" stroke="#35468A" stroke-width="2.4" stroke-linecap="round" stroke-linejoin="round"/>
</svg>
