<svg width="64" height="64" viewBox="0 0 64 64" fill="none" xmlns="http://www.w3.org/2000/svg">
<rect width="64" height="64" rx="32" fill="#DEE9FF"/>
<path d="M20.8006 38.3999L28.8006 33.5999M35.2006 30.3999L43.2006 25.5999M32.0006 20.7999V28.7999M32.0006 35.1999V43.1999M20.8006 25.5999L28.8006 30.3999M35.2006 33.5999L43.2006 38.3999M45.6006 27.1999V35.9999M34.4006 45.5999L43.2006 40.7999M20.0006 40.7999L29.6006 45.5999M18.4006 36.7999V27.1999M20.0006 23.1999L29.6006 18.3999M44.0006 23.1999L34.4006 18.3999" stroke="#35468A" stroke-width="2.4" stroke-linecap="round" stroke-linejoin="round"/>
<path d="M31.9999 20.8C33.3253 20.8 34.3999 19.7255 34.3999 18.4C34.3999 17.0745 33.3253 16 31.9999 16C30.6744 16 29.5999 17.0745 29.5999 18.4C29.5999 19.7255 30.6744 20.8 31.9999 20.8Z" stroke="#35468A" stroke-width="2.4" stroke-linecap="round" stroke-linejoin="round"/>
<path d="M31.9999 48.0002C33.3253 48.0002 34.3999 46.9257 34.3999 45.6002C34.3999 44.2747 33.3253 43.2002 31.9999 43.2002C30.6744 43.2002 29.5999 44.2747 29.5999 45.6002C29.5999 46.9257 30.6744 48.0002 31.9999 48.0002Z" stroke="#35468A" stroke-width="2.4" stroke-linecap="round" stroke-linejoin="round"/>
<path d="M18.4002 27.1999C19.7257 27.1999 20.8002 26.1254 20.8002 24.7999C20.8002 23.4744 19.7257 22.3999 18.4002 22.3999C17.0748 22.3999 16.0002 23.4744 16.0002 24.7999C16.0002 26.1254 17.0748 27.1999 18.4002 27.1999Z" stroke="#35468A" stroke-width="2.4" stroke-linecap="round" stroke-linejoin="round"/>
<path d="M45.6002 27.1999C46.9257 27.1999 48.0002 26.1254 48.0002 24.7999C48.0002 23.4744 46.9257 22.3999 45.6002 22.3999C44.2747 22.3999 43.2002 23.4744 43.2002 24.7999C43.2002 26.1254 44.2747 27.1999 45.6002 27.1999Z" stroke="#35468A" stroke-width="2.4" stroke-linecap="round" stroke-linejoin="round"/>
<path d="M45.6002 41.5998C46.9257 41.5998 48.0002 40.5253 48.0002 39.1998C48.0002 37.8743 46.9257 36.7998 45.6002 36.7998C44.2747 36.7998 43.2002 37.8743 43.2002 39.1998C43.2002 40.5253 44.2747 41.5998 45.6002 41.5998Z" stroke="#35468A" stroke-width="2.4" stroke-linecap="round" stroke-linejoin="round"/>
<path d="M18.4002 41.5998C19.7257 41.5998 20.8002 40.5253 20.8002 39.1998C20.8002 37.8743 19.7257 36.7998 18.4002 36.7998C17.0748 36.7998 16.0002 37.8743 16.0002 39.1998C16.0002 40.5253 17.0748 41.5998 18.4002 41.5998Z" stroke="#35468A" stroke-width="2.4" stroke-linecap="round" stroke-linejoin="round"/>
<path d="M32.0003 28.3999L35.2003 30.1999V33.7999L32.0003 35.5999L28.8003 33.7999V30.1999L32.0003 28.3999Z" stroke="#35468A" stroke-width="2.4" stroke-linecap="round" stroke-linejoin="round"/>
</svg>
