<svg width="24" height="41" viewBox="0 0 24 41" fill="none" xmlns="http://www.w3.org/2000/svg">
<path d="M20 26.019H18V17.269L12 21.019L6 17.269V26.019H4V14.019H5.2L12 18.269L18.8 14.019H20M20 12.019H4C2.89 12.019 2 12.909 2 14.019V26.019C2 26.5495 2.21071 27.0582 2.58579 27.4333C2.96086 27.8083 3.46957 28.019 4 28.019H20C20.5304 28.019 21.0391 27.8083 21.4142 27.4333C21.7893 27.0582 22 26.5495 22 26.019V14.019C22 13.4886 21.7893 12.9799 21.4142 12.6048C21.0391 12.2298 20.5304 12.019 20 12.019Z" fill="#EAEAEA"/>
</svg>
