<svg width="24" height="25" viewBox="0 0 24 25" fill="none" xmlns="http://www.w3.org/2000/svg">
<path d="M16 3.01904C17.3261 3.01904 18.5979 3.54583 19.5355 4.48351C20.4732 5.42119 21 6.69296 21 8.01904V16.019C21 17.3451 20.4732 18.6169 19.5355 19.5546C18.5979 20.4923 17.3261 21.019 16 21.019H8C6.67392 21.019 5.40215 20.4923 4.46447 19.5546C3.52678 18.6169 3 17.3451 3 16.019V8.01904C3 6.69296 3.52678 5.42119 4.46447 4.48351C5.40215 3.54583 6.67392 3.01904 8 3.01904H16ZM12 8.01904C10.9391 8.01904 9.92172 8.44047 9.17157 9.19062C8.42143 9.94076 8 10.9582 8 12.019C8 13.0799 8.42143 14.0973 9.17157 14.8475C9.92172 15.5976 10.9391 16.019 12 16.019C13.0609 16.019 14.0783 15.5976 14.8284 14.8475C15.5786 14.0973 16 13.0799 16 12.019C16 10.9582 15.5786 9.94076 14.8284 9.19062C14.0783 8.44047 13.0609 8.01904 12 8.01904ZM12 10.019C12.5304 10.019 13.0391 10.2298 13.4142 10.6048C13.7893 10.9799 14 11.4886 14 12.019C14 12.5495 13.7893 13.0582 13.4142 13.4333C13.0391 13.8083 12.5304 14.019 12 14.019C11.4696 14.019 10.9609 13.8083 10.5858 13.4333C10.2107 13.0582 10 12.5495 10 12.019C10 11.4886 10.2107 10.9799 10.5858 10.6048C10.9609 10.2298 11.4696 10.019 12 10.019ZM16.5 6.51904C16.2348 6.51904 15.9804 6.6244 15.7929 6.81194C15.6054 6.99947 15.5 7.25383 15.5 7.51904C15.5 7.78426 15.6054 8.03861 15.7929 8.22615C15.9804 8.41369 16.2348 8.51904 16.5 8.51904C16.7652 8.51904 17.0196 8.41369 17.2071 8.22615C17.3946 8.03861 17.5 7.78426 17.5 7.51904C17.5 7.25383 17.3946 6.99947 17.2071 6.81194C17.0196 6.6244 16.7652 6.51904 16.5 6.51904Z" fill="#EAEAEA"/>
</svg>
