<svg width="80" height="80" viewBox="0 0 80 80" fill="none" xmlns="http://www.w3.org/2000/svg">
<path d="M56.6667 13.3332C55.7826 13.3332 54.9348 12.982 54.3096 12.3569C53.6845 11.7317 53.3333 10.8839 53.3333 9.99984C53.3333 9.11578 53.6845 8.26794 54.3096 7.64281C54.9348 7.01769 55.7826 6.6665 56.6667 6.6665H70C70.8841 6.6665 71.7319 7.01769 72.357 7.64281C72.9821 8.26794 73.3333 9.11578 73.3333 9.99984V23.3332C73.3333 24.2172 72.9821 25.0651 72.357 25.6902C71.7319 26.3153 70.8841 26.6665 70 26.6665C69.1159 26.6665 68.2681 26.3153 67.643 25.6902C67.0179 25.0651 66.6667 24.2172 66.6667 23.3332V18.0465L47.3567 37.3565C46.7316 37.9814 45.8839 38.3325 45 38.3325C44.1161 38.3325 43.2684 37.9814 42.6433 37.3565L33.3333 28.0465L15.69 45.6898C15.0613 46.297 14.2193 46.633 13.3453 46.6254C12.4713 46.6178 11.6353 46.2673 11.0173 45.6492C10.3992 45.0312 10.0487 44.1952 10.0411 43.3212C10.0335 42.4472 10.3695 41.6052 10.9767 40.9765L30.9767 20.9765C31.6018 20.3516 32.4495 20.0005 33.3333 20.0005C34.2172 20.0005 35.0649 20.3516 35.69 20.9765L45 30.2865L61.9533 13.3332H56.6667ZM16.6667 59.9998V69.9998C16.6667 70.8839 16.3155 71.7317 15.6904 72.3569C15.0652 72.982 14.2174 73.3332 13.3333 73.3332C12.4493 73.3332 11.6014 72.982 10.9763 72.3569C10.3512 71.7317 10 70.8839 10 69.9998V59.9998C10 59.1158 10.3512 58.2679 10.9763 57.6428C11.6014 57.0177 12.4493 56.6665 13.3333 56.6665C14.2174 56.6665 15.0652 57.0177 15.6904 57.6428C16.3155 58.2679 16.6667 59.1158 16.6667 59.9998ZM33.3333 46.6665C33.3333 45.7824 32.9821 44.9346 32.357 44.3095C31.7319 43.6844 30.8841 43.3332 30 43.3332C29.1159 43.3332 28.2681 43.6844 27.643 44.3095C27.0179 44.9346 26.6667 45.7824 26.6667 46.6665V69.9998C26.6667 70.8839 27.0179 71.7317 27.643 72.3569C28.2681 72.982 29.1159 73.3332 30 73.3332C30.8841 73.3332 31.7319 72.982 32.357 72.3569C32.9821 71.7317 33.3333 70.8839 33.3333 69.9998V46.6665ZM46.6667 49.9998C47.5507 49.9998 48.3986 50.351 49.0237 50.9761C49.6488 51.6013 50 52.4491 50 53.3332V69.9998C50 70.8839 49.6488 71.7317 49.0237 72.3569C48.3986 72.982 47.5507 73.3332 46.6667 73.3332C45.7826 73.3332 44.9348 72.982 44.3096 72.3569C43.6845 71.7317 43.3333 70.8839 43.3333 69.9998V53.3332C43.3333 52.4491 43.6845 51.6013 44.3096 50.9761C44.9348 50.351 45.7826 49.9998 46.6667 49.9998ZM66.6667 36.6665C66.6667 35.7824 66.3155 34.9346 65.6904 34.3095C65.0652 33.6844 64.2174 33.3332 63.3333 33.3332C62.4493 33.3332 61.6014 33.6844 60.9763 34.3095C60.3512 34.9346 60 35.7824 60 36.6665V69.9998C60 70.8839 60.3512 71.7317 60.9763 72.3569C61.6014 72.982 62.4493 73.3332 63.3333 73.3332C64.2174 73.3332 65.0652 72.982 65.6904 72.3569C66.3155 71.7317 66.6667 70.8839 66.6667 69.9998V36.6665Z" fill="black"/>
<path d="M56.6257 13.3332C55.7417 13.3332 54.8938 12.982 54.2687 12.3569C53.6436 11.7317 53.2924 10.8839 53.2924 9.99984C53.2924 9.11578 53.6436 8.26794 54.2687 7.64281C54.8938 7.01769 55.7417 6.6665 56.6257 6.6665H69.959C70.8431 6.6665 71.6909 7.01769 72.3161 7.64281C72.9412 8.26794 73.2924 9.11578 73.2924 9.99984V23.3332C73.2924 24.2172 72.9412 25.0651 72.3161 25.6902C71.6909 26.3153 70.8431 26.6665 69.959 26.6665C69.075 26.6665 68.2271 26.3153 67.602 25.6902C66.9769 25.0651 66.6257 24.2172 66.6257 23.3332V18.0465L47.3157 37.3565C46.6906 37.9814 45.8429 38.3325 44.959 38.3325C44.0752 38.3325 43.2275 37.9814 42.6024 37.3565L33.2924 28.0465L15.649 45.6898C15.0204 46.297 14.1784 46.633 13.3044 46.6254C12.4304 46.6178 11.5943 46.2673 10.9763 45.6492C10.3583 45.0312 10.0077 44.1952 10.0001 43.3212C9.99253 42.4472 10.3285 41.6052 10.9357 40.9765L30.9357 20.9765C31.5608 20.3516 32.4085 20.0005 33.2924 20.0005C34.1763 20.0005 35.0239 20.3516 35.649 20.9765L44.959 30.2865L61.9124 13.3332H56.6257Z" fill="#35468A"/>
</svg>
