<svg width="80" height="80" viewBox="0 0 80 80" fill="none" xmlns="http://www.w3.org/2000/svg">
<path d="M39.9997 73.3332C32.2775 71.3887 25.9019 66.9576 20.873 60.0398C15.8441 53.1221 13.3308 45.4421 13.333 36.9998V16.6665L39.9997 6.6665L66.6663 16.6665V36.9998C66.6663 41.7221 65.8608 46.2643 64.2497 50.6265C62.6386 54.9887 60.333 58.8354 57.333 62.1665L46.6663 51.4998C45.6663 52.1109 44.5975 52.5698 43.4597 52.8765C42.3219 53.1832 41.1686 53.3354 39.9997 53.3332C36.333 53.3332 33.1941 52.0276 30.583 49.4165C27.9719 46.8054 26.6663 43.6665 26.6663 39.9998C26.6663 36.3332 27.9719 33.1943 30.583 30.5832C33.1941 27.9721 36.333 26.6665 39.9997 26.6665C43.6663 26.6665 46.8052 27.9721 49.4163 30.5832C52.0275 33.1943 53.333 36.3332 53.333 39.9998C53.333 41.2221 53.1808 42.4032 52.8763 43.5432C52.5719 44.6832 52.113 45.7798 51.4997 46.8332L56.4997 51.8332C57.6108 49.5554 58.4719 47.1665 59.083 44.6665C59.6941 42.1665 59.9997 39.6109 59.9997 36.9998V21.2498L39.9997 13.7498L19.9997 21.2498V36.9998C19.9997 43.7221 21.8886 49.8332 25.6663 55.3332C29.4441 60.8332 34.2219 64.4998 39.9997 66.3332C41.4441 65.8887 42.8197 65.3198 44.1263 64.6265C45.433 63.9332 46.7241 63.1132 47.9997 62.1665L52.6663 66.8332C50.833 68.3332 48.8474 69.6387 46.7097 70.7498C44.5719 71.861 42.3352 72.7221 39.9997 73.3332ZM39.9997 46.6665C41.833 46.6665 43.403 46.0143 44.7097 44.7098C46.0163 43.4054 46.6686 41.8354 46.6663 39.9998C46.6641 38.1643 46.0119 36.5954 44.7097 35.2932C43.4075 33.9909 41.8375 33.3376 39.9997 33.3332C38.1619 33.3287 36.593 33.9821 35.293 35.2932C33.993 36.6043 33.3397 38.1732 33.333 39.9998C33.3263 41.8265 33.9797 43.3965 35.293 44.7098C36.6063 46.0232 38.1752 46.6754 39.9997 46.6665Z" fill="black"/>
<path d="M54 40C54 47.732 47.732 54 40 54C32.268 54 26 47.732 26 40C26 32.268 32.268 26 40 26C47.732 26 54 32.268 54 40ZM33.3308 40C33.3308 43.6833 36.3167 46.6692 40 46.6692C43.6833 46.6692 46.6692 43.6833 46.6692 40C46.6692 36.3167 43.6833 33.3308 40 33.3308C36.3167 33.3308 33.3308 36.3167 33.3308 40Z" fill="#3E59C3"/>
</svg>
