<svg width="42" height="64" viewBox="0 0 42 64" fill="none" xmlns="http://www.w3.org/2000/svg">
<path d="M0 47.7273V39C0 36.4242 0.484848 33.7121 1.45455 30.8636C2.42424 28.0151 3.77273 25.2879 5.5 22.6818C7.22727 20.0758 9.25758 17.8485 11.5909 16L18.3182 20.8182C16.4697 23.5151 14.8939 26.3333 13.5909 29.2727C12.2879 32.2121 11.6364 35.4091 11.6364 38.8636V47.7273H0ZM23.1818 47.7273V39C23.1818 36.4242 23.6667 33.7121 24.6364 30.8636C25.6061 28.0151 26.9545 25.2879 28.6818 22.6818C30.4091 20.0758 32.4394 17.8485 34.7727 16L41.5 20.8182C39.6515 23.5151 38.0758 26.3333 36.7727 29.2727C35.4697 32.2121 34.8182 35.4091 34.8182 38.8636V47.7273H23.1818Z" fill="#42526B"/>
</svg>
