<svg width="80" height="80" viewBox="0 0 80 80" fill="none" xmlns="http://www.w3.org/2000/svg">
<rect width="80" height="80" fill="white"/>
<path d="M10.5 34.1667C10.5 21.5967 10.5 15.31 14.4067 11.4067C18.3133 7.50333 24.5967 7.5 37.1667 7.5H43.8333C56.4033 7.5 62.69 7.5 66.5933 11.4067C70.4967 15.3133 70.5 21.5967 70.5 34.1667V47.5C70.5 60.07 70.5 66.3567 66.5933 70.26C62.6867 74.1633 56.4033 74.1667 43.8333 74.1667H37.1667C24.5967 74.1667 18.31 74.1667 14.4067 70.26C10.5033 66.3533 10.5 60.07 10.5 47.5V34.1667Z" stroke="#2A2A2A" stroke-width="5"/>
<path d="M27.168 34.166H53.8346M27.168 47.4993H43.8346" stroke="#3E59C3" stroke-width="5" stroke-linecap="round"/>
</svg>
