<svg width="64" height="64" viewBox="0 0 64 64" fill="none" xmlns="http://www.w3.org/2000/svg">
<rect width="64" height="64" rx="32" fill="#DEE9FF"/>
<path d="M28.7998 30.8735V44.7999C28.7998 45.6831 28.7998 46.3999 30.3998 46.3999H33.5998C35.1998 46.3999 35.1998 45.6831 35.1998 44.7999V33.9807C32.7411 33.826 30.4421 32.7099 28.7998 30.8735Z" fill="#35468A"/>
<path fill-rule="evenodd" clip-rule="evenodd" d="M29.4358 27.5216C29.8505 28.4234 30.4522 29.2267 31.2009 29.8784C31.9496 30.53 32.8283 31.0151 33.7787 31.3015C34.7291 31.5879 35.7295 31.669 36.7136 31.5395C37.6977 31.41 38.643 31.0729 39.487 30.5504L43.6678 34.7312L45.9302 32.4688L41.7494 28.288C42.3865 27.2591 42.746 26.0826 42.7929 24.8733C42.8397 23.664 42.5722 22.4633 42.0165 21.3882C41.4608 20.3131 40.6358 19.4005 39.6222 18.7394C38.6085 18.0783 37.4408 17.6912 36.2329 17.6161C35.0251 17.5409 33.8184 17.7801 32.7306 18.3105C31.6428 18.8408 30.711 19.6441 30.0263 20.6419C29.3416 21.6398 28.9272 22.7981 28.8237 24.0039C28.7202 25.2096 28.9311 26.4216 29.4358 27.5216ZM35.799 28.4C35.5718 28.4 35.3494 28.3808 35.1318 28.3424C34.3255 28.1988 33.5873 27.798 33.0278 27.2C32.4298 26.5626 32.0698 25.7386 32.0084 24.8668C31.9471 23.995 32.1881 23.1287 32.6908 22.4139C33.1936 21.699 33.9274 21.1793 34.7687 20.9423C35.6099 20.7054 36.5071 20.7656 37.3091 21.1129C38.111 21.4602 38.7688 22.0733 39.1715 22.8489C39.5743 23.6245 39.6973 24.5153 39.52 25.3711C39.3427 26.2268 38.8758 26.9953 38.198 27.547C37.5202 28.0988 36.6729 28.4 35.799 28.4Z" fill="#35468A"/>
<path d="M19.2 19.2001C19.2 18.3169 19.2 17.6001 20.8 17.6001H24C25.6 17.6001 25.6 18.3169 25.6 19.2001V44.8001C25.6 45.6833 25.6 46.4001 24 46.4001H20.8C19.2 46.4001 19.2 45.6833 19.2 44.8001V19.2001ZM40 36.8001C38.4 36.8001 38.4 37.5169 38.4 38.4001V44.8001C38.4 45.6833 38.4 46.4001 40 46.4001H43.2C44.0832 46.4001 44.8 46.4001 44.8 44.8001V38.4001C44.8 37.5169 44.8 36.8001 43.2 36.8001H40Z" fill="#35468A"/>
</svg>
